<svg width="510" height="247" viewBox="0 0 510 247" fill="none" xmlns="http://www.w3.org/2000/svg">
<path d="M43.9049 190.414C34.334 178.991 27.3297 165.645 23.3664 151.279C19.4032 136.913 18.5736 121.864 20.9339 107.149C23.2941 92.4351 28.7891 78.3999 37.0466 65.9943C45.304 53.5888 56.1312 43.1028 68.7946 35.2466C81.4579 27.3903 95.6618 22.3473 110.444 20.4592C125.227 18.571 140.242 19.8817 154.474 24.3027C168.705 28.7236 181.82 36.1514 192.931 46.083C204.042 56.0145 212.888 68.2179 218.871 81.8666L209.385 86.0249C203.998 73.7356 196.033 62.7475 186.028 53.8051C176.024 44.8626 164.215 38.1745 151.401 34.1939C138.587 30.2132 125.067 29.033 111.756 30.7332C98.4464 32.4333 85.657 36.974 74.2548 44.0479C62.8526 51.1217 53.1037 60.5634 45.6686 71.7334C38.2335 82.9035 33.2858 95.5409 31.1606 108.79C29.0354 122.039 29.7824 135.59 33.3509 148.525C36.9194 161.46 43.2262 173.477 51.8439 183.762L43.9049 190.414Z" fill="#FF5F15"/>
<path d="M175.55 176.003C163.951 187.097 149.212 194.343 133.343 196.751C117.474 199.159 101.249 196.613 86.8812 189.46C72.5131 182.306 60.7018 170.894 53.0587 156.781C45.4156 142.667 42.313 126.539 44.1741 110.597C46.0351 94.6552 52.7693 79.6756 63.4579 67.702C74.1464 55.7285 88.2688 47.3441 103.898 43.6928C119.528 40.0415 135.903 41.3011 150.79 47.2997C165.677 53.2984 178.351 63.7439 187.083 77.2113L179.249 82.2907C171.562 70.4355 160.406 61.2404 147.301 55.9599C134.196 50.6794 119.781 49.5706 106.022 52.7848C92.2639 55.999 79.8321 63.3796 70.4232 73.9198C61.0142 84.46 55.0862 97.6463 53.4479 111.68C51.8096 125.713 54.5408 139.911 61.2689 152.335C67.997 164.759 78.3943 174.804 91.0424 181.101C103.69 187.398 117.973 189.64 131.942 187.52C145.911 185.4 158.886 179.022 169.096 169.256L175.55 176.003Z" fill="#FF7433"/>
<path d="M370.786 123.906C375.041 126.39 378.737 129.726 381.64 133.707C384.544 137.687 386.593 142.225 387.66 147.035C388.726 151.845 388.786 156.823 387.836 161.658C386.887 166.492 384.948 171.078 382.141 175.127C379.334 179.177 375.721 182.602 371.527 185.188C367.333 187.774 362.65 189.465 357.772 190.154C352.894 190.844 347.925 190.518 343.179 189.196C338.433 187.874 334.012 185.584 330.192 182.472L337.822 173.111C340.35 175.171 343.278 176.687 346.42 177.562C349.562 178.438 352.852 178.654 356.081 178.197C359.311 177.74 362.412 176.621 365.188 174.909C367.965 173.197 370.357 170.929 372.216 168.248C374.074 165.567 375.358 162.531 375.986 159.33C376.615 156.129 376.575 152.833 375.869 149.648C375.163 146.464 373.807 143.459 371.884 140.824C369.962 138.189 367.515 135.98 364.698 134.335L370.786 123.906Z" fill="#FF7433"/>
<path d="M187.955 99.9429L189.114 93.0907H218.619L217.46 99.9429H206.875L202.239 128H193.92L198.557 99.9429H187.955ZM220.136 128H211.068L228.642 93.0907H239.875L245.858 128H236.79L232.955 101.886H232.682L220.136 128ZM221.227 114.261H240.182L239.091 120.67H220.136L221.227 114.261ZM249.616 128L255.412 93.0907H263.849L259.213 121.147H273.736L272.577 128H249.616ZM276.945 128L282.74 93.0907H307.081L305.922 99.9429H290.018L288.859 107.102H303.518L302.359 113.971H287.7L286.541 121.147H302.445L301.286 128H276.945ZM342.075 93.0907L336.28 128H329.121L318.604 107.852H318.365L315.007 128H306.57L312.365 93.0907H319.626L330.058 113.204H330.348L333.655 93.0907H342.075ZM345.08 99.9429L346.239 93.0907H375.744L374.585 99.9429H364L359.364 128H351.045L355.682 99.9429H345.08ZM384.382 128L390.178 93.0907H404.598C407.212 93.0907 409.388 93.5963 411.126 94.6077C412.865 95.6191 414.098 97.0338 414.825 98.852C415.553 100.67 415.717 102.778 415.32 105.176C414.933 107.596 414.064 109.704 412.712 111.5C411.371 113.295 409.643 114.687 407.53 115.676C405.416 116.665 403.013 117.159 400.32 117.159H391.439L392.547 110.511H399.876C401.161 110.511 402.268 110.29 403.2 109.846C404.143 109.403 404.899 108.784 405.467 107.988C406.036 107.193 406.411 106.255 406.592 105.176C406.763 104.096 406.695 103.165 406.388 102.38C406.081 101.585 405.53 100.971 404.734 100.54C403.95 100.108 402.928 99.8918 401.666 99.8918H397.507L392.82 128H384.382ZM415.648 128L421.443 93.0907H429.881L425.244 121.147H439.767L438.608 128H415.648ZM469.891 93.0907H478.311L474.578 115.608C474.146 118.21 473.152 120.477 471.595 122.409C470.05 124.329 468.078 125.818 465.68 126.875C463.283 127.92 460.612 128.443 457.669 128.443C454.714 128.443 452.22 127.92 450.186 126.875C448.152 125.818 446.68 124.329 445.771 122.409C444.862 120.477 444.618 118.21 445.038 115.608L448.771 93.0907H457.209L453.578 114.875C453.385 116.079 453.476 117.153 453.851 118.096C454.237 119.028 454.862 119.767 455.726 120.312C456.589 120.846 457.646 121.113 458.896 121.113C460.158 121.113 461.311 120.846 462.357 120.312C463.402 119.767 464.266 119.028 464.947 118.096C465.629 117.153 466.067 116.079 466.26 114.875L469.891 93.0907ZM500.696 103.625C500.787 102.341 500.446 101.346 499.673 100.642C498.912 99.9373 497.707 99.585 496.06 99.585C494.969 99.585 494.037 99.727 493.264 100.011C492.491 100.284 491.884 100.67 491.44 101.17C490.997 101.659 490.719 102.227 490.605 102.875C490.503 103.386 490.531 103.841 490.69 104.238C490.849 104.636 491.128 104.988 491.526 105.295C491.935 105.602 492.44 105.869 493.043 106.096C493.656 106.324 494.344 106.522 495.105 106.693L497.969 107.375C499.628 107.75 501.065 108.25 502.281 108.875C503.509 109.488 504.503 110.233 505.264 111.108C506.026 111.971 506.548 112.966 506.832 114.091C507.116 115.216 507.139 116.477 506.901 117.875C506.537 120.079 505.668 121.971 504.293 123.551C502.929 125.13 501.145 126.341 498.94 127.182C496.747 128.022 494.196 128.443 491.287 128.443C488.378 128.443 485.906 128.005 483.872 127.13C481.849 126.244 480.384 124.909 479.474 123.125C478.565 121.341 478.321 119.091 478.741 116.375H486.804C486.679 117.5 486.821 118.437 487.23 119.187C487.651 119.937 488.298 120.505 489.173 120.892C490.048 121.278 491.105 121.471 492.344 121.471C493.48 121.471 494.474 121.318 495.327 121.011C496.19 120.704 496.878 120.278 497.389 119.733C497.912 119.187 498.23 118.562 498.344 117.858C498.457 117.21 498.349 116.647 498.02 116.17C497.702 115.693 497.156 115.278 496.384 114.926C495.622 114.574 494.622 114.255 493.384 113.971L489.889 113.119C487.003 112.415 484.815 111.29 483.327 109.744C481.849 108.199 481.327 106.102 481.759 103.454C482.122 101.284 483.02 99.3861 484.452 97.7611C485.895 96.1361 487.719 94.8748 489.923 93.977C492.139 93.0679 494.577 92.6134 497.236 92.6134C499.94 92.6134 502.213 93.0736 504.054 93.9941C505.906 94.9032 507.241 96.1873 508.06 97.8463C508.889 99.4941 509.128 101.42 508.776 103.625H500.696Z" fill="white"/>
<path d="M184.852 186L190.648 151.091H198.028L195.642 165.494H210.625L213.011 151.091H220.375L214.58 186H207.216L209.602 171.579H194.619L192.233 186H184.852ZM220.665 186L226.46 151.091H240.233C242.869 151.091 245.04 151.557 246.744 152.488C248.46 153.42 249.665 154.744 250.358 156.46C251.062 158.164 251.227 160.176 250.852 162.494C250.466 164.812 249.631 166.801 248.347 168.46C247.074 170.119 245.415 171.397 243.369 172.295C241.335 173.182 238.977 173.625 236.295 173.625H227.074L228.097 167.693H236.108C237.517 167.693 238.722 167.5 239.722 167.113C240.722 166.727 241.511 166.147 242.091 165.375C242.682 164.602 243.068 163.642 243.25 162.494C243.443 161.324 243.375 160.346 243.045 159.562C242.716 158.767 242.119 158.164 241.256 157.755C240.392 157.335 239.256 157.125 237.847 157.125H232.869L228.045 186H220.665ZM242.142 170.113L248.193 186H240.045L234.182 170.113H242.142ZM258.241 151.091H267.344L273.088 174.545H273.497L286.98 151.091H296.082L290.287 186H283.128L286.912 163.278H286.605L273.855 185.829H268.963L263.713 163.193H263.423L259.605 186H252.446L258.241 151.091ZM319.396 161.233C319.453 159.812 319.038 158.716 318.152 157.943C317.277 157.17 315.953 156.784 314.18 156.784C312.976 156.784 311.93 156.954 311.044 157.295C310.158 157.625 309.447 158.085 308.913 158.676C308.391 159.255 308.067 159.926 307.942 160.687C307.817 161.312 307.857 161.858 308.061 162.324C308.277 162.789 308.612 163.193 309.067 163.534C309.533 163.863 310.084 164.153 310.72 164.403C311.357 164.642 312.033 164.846 312.749 165.017L315.749 165.767C317.214 166.108 318.533 166.562 319.703 167.13C320.885 167.699 321.874 168.397 322.669 169.227C323.476 170.057 324.044 171.034 324.374 172.159C324.703 173.284 324.749 174.574 324.51 176.028C324.146 178.164 323.3 180.017 321.97 181.585C320.641 183.142 318.896 184.352 316.737 185.216C314.578 186.068 312.078 186.494 309.237 186.494C306.419 186.494 304.038 186.062 302.095 185.199C300.152 184.335 298.737 183.057 297.851 181.363C296.976 179.659 296.714 177.551 297.067 175.039H304.209C304.084 176.21 304.254 177.187 304.72 177.971C305.197 178.744 305.908 179.329 306.851 179.727C307.794 180.113 308.902 180.307 310.175 180.307C311.436 180.307 312.555 180.125 313.533 179.761C314.521 179.397 315.322 178.892 315.936 178.244C316.55 177.596 316.925 176.852 317.061 176.011C317.197 175.227 317.078 174.568 316.703 174.034C316.328 173.5 315.726 173.045 314.896 172.67C314.078 172.284 313.061 171.943 311.845 171.647L308.197 170.693C305.379 169.977 303.249 168.858 301.805 167.335C300.362 165.812 299.845 163.761 300.254 161.182C300.618 159.068 301.499 157.221 302.896 155.642C304.305 154.051 306.078 152.818 308.214 151.943C310.362 151.057 312.709 150.613 315.254 150.613C317.845 150.613 320.033 151.062 321.817 151.96C323.601 152.846 324.902 154.085 325.72 155.676C326.538 157.267 326.788 159.119 326.47 161.233H319.396Z" fill="white"/>
<path d="M362.266 160.266C358.876 165.307 352.042 166.646 347 163.257C353.138 154.128 349.748 159.17 353.138 154.128C356.528 149.087 353.138 154.128 359.276 145C364.317 148.39 365.656 155.225 362.266 160.266Z" fill="white"/>
<path d="M96.225 94.5C96.225 93.3065 96.7109 92.1619 97.5759 91.318C98.4409 90.4741 99.6141 90 100.837 90C102.061 90 103.234 90.4741 104.099 91.318C104.964 92.1619 105.45 93.3065 105.45 94.5C105.45 95.6935 104.964 96.8381 104.099 97.682C103.234 98.5259 102.061 99 100.837 99C99.6141 99 98.4409 98.5259 97.5759 97.682C96.7109 96.8381 96.225 95.6935 96.225 94.5ZM100.837 88C99.0704 88 97.3758 88.6848 96.1264 89.9038C94.8769 91.1228 94.175 92.7761 94.175 94.5C94.175 96.2239 94.8769 97.8772 96.1264 99.0962C97.3758 100.315 99.0704 101 100.837 101C102.604 101 104.299 100.315 105.549 99.0962C106.798 97.8772 107.5 96.2239 107.5 94.5C107.5 92.7761 106.798 91.1228 105.549 89.9038C104.299 88.6848 102.604 88 100.837 88ZM112.496 111.29C113.599 111.73 114.987 112 116.725 112C120.581 112 122.713 110.664 123.836 109.132C124.424 108.329 124.791 107.393 124.904 106.412C124.914 106.321 124.921 106.23 124.925 106.138V106C124.925 105.606 124.845 105.216 124.691 104.852C124.536 104.488 124.31 104.157 124.024 103.879C123.739 103.6 123.4 103.379 123.027 103.228C122.654 103.078 122.254 103 121.85 103H112.358C112.85 103.58 113.219 104.258 113.435 105H121.85C122.122 105 122.383 105.105 122.575 105.293C122.767 105.48 122.875 105.735 122.875 106V106.108L122.865 106.208C122.788 106.843 122.548 107.448 122.168 107.968C121.497 108.886 120.042 110 116.725 110C115.224 110 114.105 109.772 113.267 109.438C113.099 109.998 112.855 110.63 112.496 111.29ZM90.075 107C90.075 105.939 90.5069 104.922 91.2758 104.172C92.0447 103.421 93.0876 103 94.175 103H107.5C108.587 103 109.63 103.421 110.399 104.172C111.168 104.922 111.6 105.939 111.6 107V107.168L111.596 107.248L111.575 107.518C111.43 108.814 110.958 110.055 110.202 111.13C108.765 113.16 105.989 115 100.837 115C95.6858 115 92.9101 113.16 91.4731 111.132C90.7164 110.056 90.2445 108.815 90.0996 107.518C90.0879 107.402 90.0797 107.285 90.075 107.168V107ZM92.125 107.12V107.156L92.1393 107.322C92.2505 108.281 92.6011 109.198 93.1602 109.994C94.1586 111.402 96.2516 113 100.837 113C105.423 113 107.516 111.402 108.515 109.994C109.074 109.198 109.424 108.281 109.536 107.322C109.544 107.246 109.548 107.191 109.548 107.156L109.55 107.122V107C109.55 106.47 109.334 105.961 108.95 105.586C108.565 105.211 108.044 105 107.5 105H94.175C93.6313 105 93.1098 105.211 92.7254 105.586C92.3409 105.961 92.125 106.47 92.125 107V107.12ZM113.65 96C113.65 95.2044 113.974 94.4413 114.551 93.8787C115.127 93.3161 115.909 93 116.725 93C117.54 93 118.323 93.3161 118.899 93.8787C119.476 94.4413 119.8 95.2044 119.8 96C119.8 96.7956 119.476 97.5587 118.899 98.1213C118.323 98.6839 117.54 99 116.725 99C115.909 99 115.127 98.6839 114.551 98.1213C113.974 97.5587 113.65 96.7956 113.65 96ZM116.725 91C115.366 91 114.062 91.5268 113.101 92.4645C112.14 93.4021 111.6 94.6739 111.6 96C111.6 97.3261 112.14 98.5979 113.101 99.5355C114.062 100.473 115.366 101 116.725 101C118.084 101 119.388 100.473 120.349 99.5355C121.31 98.5979 121.85 97.3261 121.85 96C121.85 94.6739 121.31 93.4021 120.349 92.4645C119.388 91.5268 118.084 91 116.725 91Z" fill="white" stroke="white"/>
<path d="M150.781 79.3125H92.6562C86.2359 79.3125 81.0312 84.5172 81.0312 90.9375V149.062C81.0312 155.483 86.2359 160.688 92.6562 160.688H150.781C157.202 160.688 162.406 155.483 162.406 149.062V90.9375C162.406 84.5172 157.202 79.3125 150.781 79.3125Z" stroke="white" stroke-width="4.5" stroke-linecap="round" stroke-linejoin="round"/>
<path d="M133.344 150.894V121.831" stroke="white" stroke-width="4.5" stroke-linecap="round" stroke-linejoin="round"/>
<path d="M144.969 150.894V104.394" stroke="white" stroke-width="4.5" stroke-linecap="round" stroke-linejoin="round"/>
<path d="M98.4688 150.894V139.269" stroke="white" stroke-width="4.5" stroke-linecap="round" stroke-linejoin="round"/>
<path d="M110.094 127.644V150.894" stroke="white" stroke-width="4.5" stroke-linecap="round" stroke-linejoin="round"/>
<path d="M121.719 133.456V150.894" stroke="white" stroke-width="4.5" stroke-linecap="round" stroke-linejoin="round"/>
</svg>
